<svg xmlns="http://www.w3.org/2000/svg" viewBox="0 0 512 434.155">
  <defs>
    <style>
      .cls-1 {
        fill: #ffe6a8;
      }

      .cls-2 {
        fill: #fff;
      }

      .cls-3 {
        fill: #474f59;
      }

      .cls-4 {
        fill: #7a8693;
      }

      .cls-5 {
        fill: #353f49;
      }

      .cls-6 {
        fill: #6d7a89;
      }

      .cls-7 {
        fill: #d9d8d7;
      }

      .cls-8 {
        fill: #e4e4e5;
      }

      .cls-9 {
        fill: #f77b55;
      }

      .cls-10 {
        fill: #f9a490;
      }

      .cls-11 {
        fill: #76d0de;
      }

      .cls-12 {
        fill: #9cdfea;
      }

      .cls-13 {
        fill: #cccbca;
      }

      .cls-14 {
        fill: #f2f2f2;
      }

      .cls-15 {
        fill: #232e38;
      }

      .cls-16 {
        fill: #606f7d;
      }

      .cls-17 {
        fill: #ee643c;
      }

      .cls-18 {
        fill: #66cedb;
      }

      .cls-19 {
        fill: #010133;
      }
    </style>
  </defs>
  <g id="coursework" transform="translate(-913 -248.5)">
    <g id="library" transform="translate(913 219.999)">
      <path id="Path_14" data-name="Path 14" class="cls-1" d="M385.749,189.542v171.5H300.691a17.092,17.092,0,0,0-17.114,17.078v8.555H270.5V189.707H209.753l34.75-48.524,44.065,15.1a28.069,28.069,0,1,0,53.116,18.168Z" transform="translate(0 50)"/>
      <rect id="Rectangle_1" data-name="Rectangle 1" class="cls-2" width="28.312" height="196.999" transform="translate(136.539 239.691)"/>
      <rect id="Rectangle_2" data-name="Rectangle 2" class="cls-3" width="28.312" height="155.349" transform="translate(136.539 260.511)"/>
      <path id="Path_15" data-name="Path 15" class="cls-4" d="M164.863,252.368v32.8H141.377Z" transform="translate(0 50)"/>
      <rect id="Rectangle_3" data-name="Rectangle 3" class="cls-5" width="105.639" height="155.349" transform="translate(164.849 260.511)"/>
      <path id="Path_16" data-name="Path 16" class="cls-6" d="M270.5,210.517V359.326H245.527a8.513,8.513,0,0,0,8.522-8.489v-22a8.513,8.513,0,0,0-8.522-8.486H236.08V285.169H164.862v-32.8l29.993-41.852Z" transform="translate(0 50)"/>
      <rect id="Rectangle_4" data-name="Rectangle 4" class="cls-7" width="105.639" height="20.824" transform="translate(164.849 239.691)"/>
      <path id="Path_17" data-name="Path 17" class="cls-8" d="M270.5,189.707v20.81H194.856l14.9-20.81Z" transform="translate(0 50)"/>
      <rect id="Rectangle_5" data-name="Rectangle 5" class="cls-3" width="105.639" height="20.82" transform="translate(164.849 415.87)"/>
      <rect id="Rectangle_6" data-name="Rectangle 6" class="cls-2" width="206.139" height="35.17" transform="translate(53.5 335.18)"/>
      <rect id="Rectangle_7" data-name="Rectangle 7" class="cls-9" width="159.029" height="35.17" transform="translate(77.06 335.18)"/>
      <path id="Path_18" data-name="Path 18" class="cls-10" d="M236.081,285.169v35.18H116.173l25.2-35.18Z" transform="translate(0 50)"/>
      <g id="Group_3" data-name="Group 3" transform="translate(0 50)">
        <rect id="Rectangle_8" data-name="Rectangle 8" class="cls-2" width="108.339" height="4.697" transform="translate(102.399 304.69)"/>
        <rect id="Rectangle_9" data-name="Rectangle 9" class="cls-2" width="54.17" height="4.697" transform="translate(102.399 296.14)"/>
      </g>
      <rect id="Rectangle_10" data-name="Rectangle 10" class="cls-11" width="227.839" height="27.351" transform="translate(42.651 409.34)"/>
      <path id="Path_19" data-name="Path 19" class="cls-12" d="M270.5,359.327v27.35H68.674l19.587-27.35Z" transform="translate(0 50)"/>
      <g id="Group_4" data-name="Group 4" transform="translate(0 50)">
        <rect id="Rectangle_11" data-name="Rectangle 11" class="cls-2" width="19.552" height="27.351" transform="translate(81.7 359.34)"/>
        <rect id="Rectangle_12" data-name="Rectangle 12" class="cls-2" width="6.524" height="27.351" transform="translate(68.69 359.34)"/>
        <rect id="Rectangle_13" data-name="Rectangle 13" class="cls-2" width="19.545" height="27.351" transform="translate(211.889 359.34)"/>
        <rect id="Rectangle_14" data-name="Rectangle 14" class="cls-2" width="6.524" height="27.351" transform="translate(237.929 359.34)"/>
      </g>
      <path id="Path_20" data-name="Path 20" class="cls-5" d="M251.553,322.829a8.473,8.473,0,0,0-6.012-2.487H59.1V325.3H245.541a3.541,3.541,0,0,1,3.534,3.541v21.98a3.535,3.535,0,0,1-3.534,3.544H59.1v4.968H245.541a8.515,8.515,0,0,0,8.509-8.509v-21.98A8.506,8.506,0,0,0,251.553,322.829Z" transform="translate(0 50)"/>
      <path id="Path_21" data-name="Path 21" class="cls-6" d="M254.05,328.838v22a8.513,8.513,0,0,1-8.522,8.489H88.261l3.534-4.955H245.526a3.507,3.507,0,0,0,2.51-1.027,3.628,3.628,0,0,0,1.024-2.51v-22a3.632,3.632,0,0,0-1.024-2.51,3.52,3.52,0,0,0-2.51-1.024H112.639l3.534-4.955H245.526a8.517,8.517,0,0,1,8.524,8.492Z" transform="translate(0 50)"/>
      <path id="Path_22" data-name="Path 22" class="cls-2" d="M64.056,354.368V325.3H245.541a3.541,3.541,0,0,1,3.534,3.541v21.98a3.535,3.535,0,0,1-3.534,3.544Z" transform="translate(0 50)"/>
      <g id="Group_5" data-name="Group 5" transform="translate(0 50)">
        <rect id="Rectangle_15" data-name="Rectangle 15" class="cls-13" width="92.499" height="1.629" transform="translate(156.569 343.6)"/>
        <path id="Path_23" data-name="Path 23" class="cls-13" d="M156.572,326.935h91.941a3.514,3.514,0,0,0-2.94-1.629h-89v1.629Z"/>
        <rect id="Rectangle_16" data-name="Rectangle 16" class="cls-13" width="92.499" height="1.635" transform="translate(156.569 331.4)"/>
        <rect id="Rectangle_17" data-name="Rectangle 17" class="cls-13" width="92.499" height="1.628" transform="translate(156.569 340.55)"/>
        <path id="Path_24" data-name="Path 24" class="cls-13" d="M156.572,329.984h92.5v-1.14a3.569,3.569,0,0,0-.047-.486H156.572Z"/>
        <rect id="Rectangle_18" data-name="Rectangle 18" class="cls-13" width="92.499" height="1.628" transform="translate(156.569 337.5)"/>
        <rect id="Rectangle_19" data-name="Rectangle 19" class="cls-13" width="92.499" height="1.628" transform="translate(156.569 346.65)"/>
        <path id="Path_25" data-name="Path 25" class="cls-13" d="M156.572,354.368H245.54a3.525,3.525,0,0,0,2.972-1.625h-91.94Z"/>
        <rect id="Rectangle_20" data-name="Rectangle 20" class="cls-13" width="92.499" height="1.638" transform="translate(156.569 334.45)"/>
        <path id="Path_26" data-name="Path 26" class="cls-13" d="M156.572,351.323h92.455a3.6,3.6,0,0,0,.048-.5v-1.13h-92.5v1.629Z"/>
      </g>
      <path id="Path_27" data-name="Path 27" class="cls-2" d="M156.572,325.3Z" transform="translate(0 50)"/>
      <g id="Group_6" data-name="Group 6" transform="translate(0 50)">
        <path id="Path_28" data-name="Path 28" class="cls-14" d="M156.572,328.359h92.456a3.475,3.475,0,0,0-.515-1.424H156.572Z"/>
        <rect id="Rectangle_21" data-name="Rectangle 21" class="cls-14" width="92.499" height="1.417" transform="translate(156.569 329.98)"/>
        <rect id="Rectangle_22" data-name="Rectangle 22" class="cls-14" width="92.499" height="1.41" transform="translate(156.569 333.04)"/>
        <rect id="Rectangle_23" data-name="Rectangle 23" class="cls-14" width="92.499" height="1.414" transform="translate(156.569 336.08)"/>
        <rect id="Rectangle_24" data-name="Rectangle 24" class="cls-14" width="92.499" height="1.424" transform="translate(156.569 339.13)"/>
        <rect id="Rectangle_25" data-name="Rectangle 25" class="cls-14" width="92.499" height="1.417" transform="translate(156.569 342.18)"/>
        <rect id="Rectangle_26" data-name="Rectangle 26" class="cls-14" width="92.499" height="1.424" transform="translate(156.569 345.23)"/>
        <rect id="Rectangle_27" data-name="Rectangle 27" class="cls-14" width="92.499" height="1.417" transform="translate(156.569 348.28)"/>
        <path id="Path_29" data-name="Path 29" class="cls-14" d="M156.572,352.743h91.94a3.469,3.469,0,0,0,.515-1.42H156.572Z"/>
      </g>
      <path id="Path_30" data-name="Path 30" class="cls-10" d="M226.442,346.645H214.451v27.008l5.989-5.992,6,5.992Z" transform="translate(0 50)"/>
      <g id="Group_7" data-name="Group 7" transform="translate(0 50)">
        <rect id="Rectangle_28" data-name="Rectangle 28" class="cls-3" width="10.263" height="171.084" transform="matrix(0.793, 0.609, -0.609, 0.793, 495.853, 225.428)"/>
        <rect id="Rectangle_29" data-name="Rectangle 29" class="cls-3" width="10.277" height="171.067" transform="translate(387.648 105.117) rotate(-39.307)"/>
      </g>
      <g id="Group_8" data-name="Group 8" transform="translate(0 50)">
        <path id="Path_31" data-name="Path 31" class="cls-15" d="M483.662,230.792a14.112,14.112,0,1,0,14.723-13.471,14.112,14.112,0,0,0-14.723,13.471Z"/>
        <path id="Path_32" data-name="Path 32" class="cls-15" d="M283.58,386.687H433.258v-8.555a17.1,17.1,0,0,0-17.1-17.1H300.681a17.1,17.1,0,0,0-17.1,17.1v8.555Z"/>
      </g>
      <path id="Path_33" data-name="Path 33" class="cls-16" d="M385.749,361.044v25.633H283.58v-8.555a17.092,17.092,0,0,1,17.114-17.078Z" transform="translate(0 50)"/>
      <path id="Path_34" data-name="Path 34" class="cls-15" d="M389.022,84.522a14.114,14.114,0,1,1-9.158,26.7L344.875,99.237l9.14-26.7Z" transform="translate(0 50)"/>
      <path id="Path_35" data-name="Path 35" class="cls-2" d="M341.69,174.446A28.069,28.069,0,1,1,324.222,138.8a28.069,28.069,0,0,1,17.468,35.646Z" transform="translate(0 50)"/>
      <path id="Path_36" data-name="Path 36" class="cls-15" d="M244.507,141.169l141.255,48.376-16.054-78.9L305.54,88.668Z" transform="translate(0 50)"/>
      <rect id="Rectangle_30" data-name="Rectangle 30" class="cls-3" width="67.83" height="33.712" transform="matrix(-0.946, -0.324, 0.324, -0.946, 369.708, 160.643)"/>
      <path id="Path_37" data-name="Path 37" class="cls-15" d="M335.1,53.106l33.045,11.32-3.072,9.008-33.049-11.32Z" transform="translate(0 50)"/>
      <path id="Path_38" data-name="Path 38" class="cls-14" d="M42.651,412.654,0,399.675l42.651-12.988Z" transform="translate(0 50)"/>
      <path id="Path_39" data-name="Path 39" class="cls-13" d="M0,399.675l42.651,12.979v-8.162Z" transform="translate(0 50)"/>
      <rect id="Rectangle_31" data-name="Rectangle 31" class="cls-9" width="426.688" height="25.963" transform="translate(42.651 436.69)"/>
      <rect id="Rectangle_32" data-name="Rectangle 32" class="cls-17" width="426.688" height="8.162" transform="translate(42.651 454.49)"/>
      <path id="Path_40" data-name="Path 40" class="cls-5" d="M16.691,404.749,0,399.675l16.691-5.113Z" transform="translate(0 50)"/>
      <path id="Path_41" data-name="Path 41" class="cls-15" d="M16.691,404.749,0,399.675l16.691,1.88Z" transform="translate(0 50)"/>
      <rect id="Rectangle_33" data-name="Rectangle 33" class="cls-14" width="15.06" height="25.963" transform="translate(469.347 436.69)"/>
      <rect id="Rectangle_34" data-name="Rectangle 34" class="cls-13" width="15.06" height="8.162" transform="translate(469.347 454.49)"/>
      <path id="Path_42" data-name="Path 42" class="cls-3" d="M499.009,412.654a12.971,12.971,0,0,0,12.985-12.979h0a12.988,12.988,0,0,0-12.985-12.982H484.4v25.963h14.61Z" transform="translate(0 50)"/>
      <path id="Path_43" data-name="Path 43" class="cls-15" d="M508.2,390.5a12.975,12.975,0,0,0-5.07-3.092,13.428,13.428,0,0,1,.7,4.1,12.964,12.964,0,0,1-12.985,12.978H484.4v8.162h14.61A12.974,12.974,0,0,0,508.2,390.5Z" transform="translate(0 50)"/>
    </g>
    <g id="circuit" transform="translate(967.396 329.401)">
      <g id="Group_1" data-name="Group 1" transform="translate(9.804 1.96)">
        <circle id="Ellipse_1" data-name="Ellipse 1" class="cls-18" cx="3.92" cy="3.92" r="3.92" transform="translate(70.558 105.838)"/>
        <path id="Path_1" data-name="Path 1" class="cls-18" d="M80,235.92A3.92,3.92,0,1,0,83.92,232,3.92,3.92,0,0,0,80,235.92Z" transform="translate(-70.204 -177.121)"/>
        <path id="Path_2" data-name="Path 2" class="cls-18" d="M75.924,15.84a3.921,3.921,0,1,0-2.771-1.149,3.921,3.921,0,0,0,2.771,1.149Z" transform="translate(-64.164 -8)"/>
        <circle id="Ellipse_2" data-name="Ellipse 2" class="cls-18" cx="3.92" cy="3.92" r="3.92" transform="translate(0 31.359)"/>
        <path id="Path_3" data-name="Path 3" class="cls-18" d="M75.924,87.84a3.919,3.919,0,1,0-2.775-1.146,3.92,3.92,0,0,0,2.775,1.146Z" transform="translate(-64.164 -62.36)"/>
        <circle id="Ellipse_3" data-name="Ellipse 3" class="cls-18" cx="3.92" cy="3.92" r="3.92" transform="translate(31.359 31.359)"/>
        <circle id="Ellipse_4" data-name="Ellipse 4" class="cls-18" cx="3.92" cy="3.92" r="3.92" transform="translate(25.479 17.64)"/>
        <circle id="Ellipse_5" data-name="Ellipse 5" class="cls-18" cx="3.92" cy="3.92" r="3.92" transform="translate(45.079 43.119)"/>
        <circle id="Ellipse_6" data-name="Ellipse 6" class="cls-18" cx="3.92" cy="3.92" r="3.92" transform="translate(33.319 0)"/>
        <circle id="Ellipse_7" data-name="Ellipse 7" class="cls-18" cx="3.92" cy="3.92" r="3.92" transform="translate(50.959 0)"/>
        <circle id="Ellipse_8" data-name="Ellipse 8" class="cls-18" cx="3.92" cy="3.92" r="3.92" transform="translate(68.598 0)"/>
        <circle id="Ellipse_9" data-name="Ellipse 9" class="cls-18" cx="3.92" cy="3.92" r="3.92" transform="translate(97.998 27.439)"/>
        <circle id="Ellipse_10" data-name="Ellipse 10" class="cls-18" cx="3.92" cy="3.92" r="3.92" transform="translate(86.238 17.64)"/>
        <circle id="Ellipse_11" data-name="Ellipse 11" class="cls-18" cx="3.92" cy="3.92" r="3.92" transform="translate(56.839 54.879)"/>
        <circle id="Ellipse_12" data-name="Ellipse 12" class="cls-18" cx="3.92" cy="3.92" r="3.92" transform="translate(70.558 66.639)"/>
        <circle id="Ellipse_13" data-name="Ellipse 13" class="cls-18" cx="3.92" cy="3.92" r="3.92" transform="translate(39.199 66.639)"/>
        <path id="Path_4" data-name="Path 4" class="cls-18" d="M377.153,217.149A3.919,3.919,0,1,0,379.924,216a3.919,3.919,0,0,0-2.771,1.149Z" transform="translate(-293.686 -165.041)"/>
        <path id="Path_5" data-name="Path 5" class="cls-18" d="M443.924,200a3.908,3.908,0,1,0,2.775,1.145A3.92,3.92,0,0,0,443.924,200Z" transform="translate(-342.006 -152.961)"/>
        <circle id="Ellipse_14" data-name="Ellipse 14" class="cls-18" cx="3.92" cy="3.92" r="3.92" transform="translate(82.318 78.398)"/>
        <circle id="Ellipse_15" data-name="Ellipse 15" class="cls-18" cx="3.92" cy="3.92" r="3.92" transform="translate(82.318 94.078)"/>
        <circle id="Ellipse_16" data-name="Ellipse 16" class="cls-18" cx="3.92" cy="3.92" r="3.92" transform="translate(60.759 39.199)"/>
      </g>
      <g id="Group_2" data-name="Group 2" transform="translate(0.004)">
        <path id="Path_6" data-name="Path 6" class="cls-19" d="M69.243,128a5.872,5.872,0,0,0-5.519,3.92H43.4a5.88,5.88,0,1,0,0,3.92H63.726A5.87,5.87,0,1,0,69.243,128Zm-31.359,7.84a1.96,1.96,0,1,1,1.96-1.96,1.96,1.96,0,0,1-1.96,1.96Zm31.359,0a1.96,1.96,0,1,1,1.96-1.96A1.96,1.96,0,0,1,69.243,135.84Z" transform="translate(-24.164 -96.641)"/>
        <path id="Path_7" data-name="Path 7" class="cls-19" d="M155.6,103.359a5.88,5.88,0,1,0,7.84-5.519V85.72a1.951,1.951,0,0,0-.574-1.386l-7.84-7.84a1.955,1.955,0,0,0-1.386-.574H147.4a5.88,5.88,0,1,0,0,3.92h5.429l6.691,6.691V97.84a5.872,5.872,0,0,0-3.92,5.519ZM141.884,79.84a1.96,1.96,0,1,1,1.96-1.96,1.96,1.96,0,0,1-1.96,1.96Zm19.6,25.479a1.96,1.96,0,1,1,1.96-1.96,1.96,1.96,0,0,1-1.96,1.96Z" transform="translate(-102.685 -54.36)"/>
        <path id="Path_8" data-name="Path 8" class="cls-19" d="M245.884,0a5.88,5.88,0,1,0,0,11.76,5.784,5.784,0,0,0,2.519-.59l19.041,19.041V49a1.951,1.951,0,0,0,.574,1.386l3.936,3.936a5.784,5.784,0,0,0-.59,2.519,5.88,5.88,0,1,0,5.88-5.88,5.783,5.783,0,0,0-2.519.59l-3.361-3.361V29.4a1.951,1.951,0,0,0-.574-1.386L251.174,8.4a5.784,5.784,0,0,0,.59-2.519A5.887,5.887,0,0,0,245.884,0ZM279.2,56.839a1.96,1.96,0,1,1-1.96-1.96,1.96,1.96,0,0,1,1.96,1.96Zm-33.319-49a1.96,1.96,0,1,1,1.96-1.96,1.96,1.96,0,0,1-1.96,1.96Z" transform="translate(-181.205)"/>
        <path id="Path_9" data-name="Path 9" class="cls-19" d="M349.243,27.8V19.6a1.951,1.951,0,0,0-.574-1.386l-13.72-13.72a1.955,1.955,0,0,0-1.386-.574H323.4a5.88,5.88,0,1,0,0,3.92h9.349L345.32,20.411V27.8a5.88,5.88,0,1,0,3.92,0ZM317.884,7.84a1.96,1.96,0,1,1,1.96-1.96,1.96,1.96,0,0,1-1.96,1.96Zm29.4,27.439a1.96,1.96,0,1,1,1.96-1.96,1.96,1.96,0,0,1-1.96,1.96Z" transform="translate(-235.566)"/>
        <path id="Path_10" data-name="Path 10" class="cls-19" d="M144.522,241.64a5.866,5.866,0,0,0-11.4-1.96H112.8a5.845,5.845,0,0,0-11.038,0H90.455l-7.281-7.28a5.784,5.784,0,0,0,.59-2.519,5.88,5.88,0,1,0-5.88,5.88,5.784,5.784,0,0,0,2.519-.59l7.856,7.855a1.955,1.955,0,0,0,1.386.574h12.12a5.845,5.845,0,0,0,11.038,0h20.323a5.874,5.874,0,0,0,3.559,3.559v28.163a5.88,5.88,0,1,0,3.92,0V247.159a5.873,5.873,0,0,0,3.917-5.519Zm-68.6-11.76a1.96,1.96,0,1,1,1.96,1.96,1.96,1.96,0,0,1-1.96-1.96Zm62.719,9.8a1.96,1.96,0,1,1-1.96,1.96,1.96,1.96,0,0,1,1.96-1.96Zm-31.359,3.92a1.96,1.96,0,1,1,1.96-1.96,1.96,1.96,0,0,1-1.96,1.96Zm31.359,39.2a1.96,1.96,0,1,1,1.96-1.96,1.96,1.96,0,0,1-1.96,1.96Z" transform="translate(-54.364 -169.121)"/>
        <path id="Path_11" data-name="Path 11" class="cls-19" d="M116.923,45.079a5.88,5.88,0,1,0,7.84-5.519V33.319a1.951,1.951,0,0,0-.574-1.386L100.653,8.4a5.784,5.784,0,0,0,.59-2.519,5.866,5.866,0,0,0-11.4-1.96h-8.2a1.959,1.959,0,0,0-1.96,1.96v5.068L72.4,18.23a5.784,5.784,0,0,0-2.519-.59,5.88,5.88,0,1,0,5.88,5.88A5.783,5.783,0,0,0,75.174,21l7.856-7.856a1.951,1.951,0,0,0,.57-1.384V7.84h6.241a5.872,5.872,0,0,0,5.519,3.92,5.783,5.783,0,0,0,2.519-.59L120.84,34.131V39.56a5.872,5.872,0,0,0-3.917,5.519Zm-47.039-19.6a1.96,1.96,0,1,1,1.96-1.96,1.96,1.96,0,0,1-1.96,1.96ZM95.363,7.84a1.96,1.96,0,1,1,1.96-1.96,1.96,1.96,0,0,1-1.96,1.96ZM122.8,47.04a1.96,1.96,0,1,1,1.96-1.96,1.96,1.96,0,0,1-1.96,1.96Z" transform="translate(-48.324)"/>
        <path id="Path_12" data-name="Path 12" class="cls-19" d="M6.458,50.385a1.955,1.955,0,0,0,1.386.574H28.592L39.777,62.144a1.955,1.955,0,0,0,1.386.574h23.88a5.88,5.88,0,1,0,0-3.92H41.975L30.789,47.613a1.955,1.955,0,0,0-1.386-.574H8.655L3.924,42.308V26.291L19.045,11.17a5.784,5.784,0,0,0,2.519.59,5.88,5.88,0,1,0-5.88-5.88,5.784,5.784,0,0,0,.59,2.519L.574,24.1A1.951,1.951,0,0,0,0,25.479v17.64A1.951,1.951,0,0,0,.578,44.5Zm64.1,8.414a1.96,1.96,0,1,1-1.96,1.96,1.96,1.96,0,0,1,1.96-1.96Zm-49-54.879a1.959,1.959,0,1,0,.006,0Z" transform="translate(-0.004)"/>
        <path id="Path_13" data-name="Path 13" class="cls-19" d="M390.949,116.5a1.951,1.951,0,0,0,.574-1.386V112.8a5.866,5.866,0,0,0-1.96-11.4,5.784,5.784,0,0,0-2.519.59l-7.281-7.281V83.4a5.88,5.88,0,1,0-3.92,0V95.52a1.951,1.951,0,0,0,.574,1.386l7.855,7.855a5.783,5.783,0,0,0-.59,2.519,5.872,5.872,0,0,0,3.92,5.519v1.509l-15.1,15.1a1.952,1.952,0,0,0-.574,1.386v2.321a5.846,5.846,0,0,0,0,11.038V148.8a5.88,5.88,0,1,0,3.92,0v-4.643a5.845,5.845,0,0,0,0-11.038V131.61ZM377.8,75.92a1.96,1.96,0,1,1-1.96,1.96,1.96,1.96,0,0,1,1.96-1.96Zm13.72,31.359a1.96,1.96,0,1,1-1.96-1.96,1.96,1.96,0,0,1,1.96,1.96Zm-17.64,49a1.96,1.96,0,1,1,1.96-1.96,1.96,1.96,0,0,1-1.96,1.96Zm0-15.68a1.96,1.96,0,1,1,1.96-1.96,1.96,1.96,0,0,1-1.96,1.96Z" transform="translate(-277.846 -54.36)"/>
      </g>
    </g>
    <g id="binary-code" transform="translate(1107.032 245.782)">
      <path id="rect34754" d="M26.313,2.719a1.753,1.753,0,0,0-1.188.512L19.867,8.489A1.754,1.754,0,0,0,22.317,11l.029-.029L24.612,8.7V23.749H21.106a1.753,1.753,0,1,0-.05,3.505h5.021a1.743,1.743,0,0,0,.566,0h3.226a1.753,1.753,0,1,0,.05-3.505h-1.8V4.47a1.753,1.753,0,0,0-1.754-1.752Zm19.329,0a1.753,1.753,0,0,0-1.188.512L39.2,8.489a1.753,1.753,0,1,0,2.428,2.529l.05-.05L43.941,8.7V23.749H40.436a1.753,1.753,0,1,0-.05,3.505h5.021a1.756,1.756,0,0,0,.568,0H49.2a1.753,1.753,0,1,0,.05-3.505h-1.8V4.47A1.753,1.753,0,0,0,45.7,2.718ZM6.159,2.731A6.16,6.16,0,0,0,.025,8.865V21.134a6.135,6.135,0,1,0,12.269,0V8.865A6.16,6.16,0,0,0,6.159,2.731Zm57.988,0a6.16,6.16,0,0,0-6.134,6.134V21.134a6.135,6.135,0,1,0,12.269,0V8.865A6.16,6.16,0,0,0,64.147,2.731Zm19.329,0a6.16,6.16,0,0,0-6.134,6.134V21.134a6.134,6.134,0,1,0,12.269,0V8.865a6.16,6.16,0,0,0-6.135-6.134ZM6.159,6.236A2.586,2.586,0,0,1,8.788,8.865V21.134a2.586,2.586,0,0,1-2.629,2.629A2.586,2.586,0,0,1,3.53,21.134V8.865A2.586,2.586,0,0,1,6.159,6.236Zm57.988,0a2.586,2.586,0,0,1,2.629,2.629V21.134a2.629,2.629,0,0,1-5.258,0V8.865a2.585,2.585,0,0,1,2.629-2.629Zm19.329,0A2.586,2.586,0,0,1,86.1,8.865V21.134a2.629,2.629,0,1,1-5.258,0V8.865a2.585,2.585,0,0,1,2.629-2.629ZM6.984,34.292A1.753,1.753,0,0,0,5.8,34.8L.538,40.062a1.753,1.753,0,1,0,2.479,2.479l2.265-2.265V55.323H1.777a1.753,1.753,0,1,0-.05,3.505H6.748a1.756,1.756,0,0,0,.568,0H10.54a1.753,1.753,0,1,0,.05-3.505H8.79V36.043A1.753,1.753,0,0,0,7.037,34.29Zm38.658,0a1.753,1.753,0,0,0-1.188.512L39.2,40.062a1.753,1.753,0,1,0,2.449,2.508l.029-.029,2.266-2.266V55.323H40.436a1.753,1.753,0,1,0-.05,3.505h5.021a1.756,1.756,0,0,0,.568,0H49.2a1.753,1.753,0,1,0,.05-3.505h-1.8V36.043A1.753,1.753,0,0,0,45.7,34.29Zm19.329,0a1.753,1.753,0,0,0-1.188.512l-5.258,5.258a1.753,1.753,0,1,0,2.449,2.508L61,42.541l2.266-2.266V55.323h-3.5a1.753,1.753,0,1,0-.05,3.505h5.021a1.756,1.756,0,0,0,.568,0h3.224a1.753,1.753,0,1,0,.05-3.505h-1.8V36.043a1.753,1.753,0,0,0-1.753-1.753ZM25.488,34.3a6.16,6.16,0,0,0-6.134,6.134V52.706a6.135,6.135,0,0,0,12.269,0V40.437A6.16,6.16,0,0,0,25.488,34.3Zm57.988,0a6.16,6.16,0,0,0-6.134,6.134V52.706a6.134,6.134,0,0,0,12.269,0V40.437A6.16,6.16,0,0,0,83.476,34.3ZM25.488,37.808a2.586,2.586,0,0,1,2.629,2.629V52.706a2.629,2.629,0,1,1-5.258,0V40.437a2.585,2.585,0,0,1,2.629-2.629Zm57.988,0a2.586,2.586,0,0,1,2.629,2.629V52.706a2.629,2.629,0,1,1-5.258,0V40.437a2.585,2.585,0,0,1,2.629-2.629ZM6.984,65.864a1.753,1.753,0,0,0-1.188.512L.538,71.634a1.753,1.753,0,1,0,2.479,2.479l2.265-2.265V86.895H1.777a1.753,1.753,0,1,0-.05,3.505H6.748a1.756,1.756,0,0,0,.568,0H10.54a1.753,1.753,0,1,0,.05-3.505H8.79V67.615a1.753,1.753,0,0,0-1.754-1.752Zm19.329,0a1.753,1.753,0,0,0-1.188.512l-5.258,5.258a1.753,1.753,0,1,0,2.479,2.479l2.265-2.265V86.895h-3.5a1.753,1.753,0,1,0-.05,3.505h5.021a1.743,1.743,0,0,0,.566,0h3.226a1.753,1.753,0,1,0,.05-3.505h-1.8V67.615a1.753,1.753,0,0,0-1.754-1.752Zm19.329,0a1.753,1.753,0,0,0-1.188.512L39.2,71.634a1.753,1.753,0,1,0,2.449,2.508l.029-.029,2.266-2.266V86.895H40.436a1.753,1.753,0,1,0-.05,3.505h5.021a1.756,1.756,0,0,0,.568,0H49.2a1.753,1.753,0,1,0,.05-3.505h-1.8V67.615A1.753,1.753,0,0,0,45.7,65.863Zm19.329,0a1.753,1.753,0,0,0-1.188.512l-5.258,5.258a1.753,1.753,0,1,0,2.449,2.508L61,74.113l2.266-2.266V86.895h-3.5a1.753,1.753,0,1,0-.05,3.505h5.021a1.756,1.756,0,0,0,.568,0h3.224a1.753,1.753,0,1,0,.05-3.505h-1.8V67.615a1.753,1.753,0,0,0-1.754-1.752Zm18.5.012a6.16,6.16,0,0,0-6.134,6.134V84.279a6.134,6.134,0,1,0,12.269,0V72.01a6.16,6.16,0,0,0-6.13-6.134Zm0,3.5A2.586,2.586,0,0,1,86.1,72.01V84.279a2.629,2.629,0,1,1-5.258,0V72.01a2.586,2.586,0,0,1,2.634-2.629Z"/>
    </g>
  </g>
</svg>
