<svg xmlns="http://www.w3.org/2000/svg" viewBox="0 0 425.265 426">
  <defs>
    <style>
      .cls-1 {
        fill: #e14a4a;
      }

      .cls-2 {
        fill: #3a5569;
      }

      .cls-3 {
        fill: #637888;
      }

      .cls-4 {
        fill: #fec656;
      }

      .cls-5 {
        fill: #c2c6c6;
      }

      .cls-6 {
        fill: #e5eae9;
      }

      .cls-7 {
        fill: #888c8c;
      }

      .cls-8 {
        fill: #bababa;
      }

      .cls-9 {
        fill: #e0e0df;
      }

      .cls-10 {
        fill: #f16d6e;
      }
    </style>
  </defs>
  <g id="graduation" transform="translate(-0.433)">
    <g id="Group_1" data-name="Group 1" transform="translate(64.858 326.298)">
      <path id="Path_1" data-name="Path 1" class="cls-1" d="M153.742,394.667l-8.157,50.757,14.5-12.689,20.847,15.408-7.252-43.506Z" transform="translate(-86.67 -385.603)"/>
      <path id="Path_2" data-name="Path 2" class="cls-1" d="M121.571,384l-45.32,8.157,19.034,3.626-7.251,11.782,54.383-14.5Z" transform="translate(-76.251 -384)"/>
    </g>
    <path id="Path_3" data-name="Path 3" class="cls-2" d="M343.06,248.7c-69.791,54.383-158.617,54.383-228.409,0V92.8H343.06Z" transform="translate(-17.163 -13.945)"/>
    <path id="Path_4" data-name="Path 4" class="cls-3" d="M13.318,80.668l210.281,85.2L413.033,75.23,214.535,0Z" transform="translate(-1.936)"/>
    <path id="Path_5" data-name="Path 5" class="cls-2" d="M450.589,171.81a3.9,3.9,0,0,1-3.626-3.626V90.235c0-5.438-6.345-6.345-7.251-7.251l-184.9,7.251h0a3.626,3.626,0,1,1,0-7.252l185.809-7.251h0c4.532.907,13.6,4.532,13.6,14.5v77.949A3.9,3.9,0,0,1,450.589,171.81Z" transform="translate(-37.679 -11.38)"/>
    <g id="Group_2" data-name="Group 2" transform="translate(401.029 121.456)">
      <path id="Path_6" data-name="Path 6" class="cls-4" d="M496.44,242.11l-7.251-69.791a2.4,2.4,0,0,0-2.719-2.719h-4.532a2.894,2.894,0,0,0-2.719,2.719l-7.251,69.791c-.907,9.97,4.532,18.127,12.689,18.127C491.908,260.239,497.346,252.081,496.44,242.11Z" transform="translate(-471.87 -146.941)"/>
      <circle id="Ellipse_1" data-name="Ellipse 1" class="cls-4" cx="7.251" cy="7.251" r="7.251" transform="translate(4.629)"/>
    </g>
    <path id="Path_7" data-name="Path 7" class="cls-5" d="M346.282,443s-19.034,29-61.634,31.723c0,0-156.8-121.455-269.2-121.455,0,0,2.719-19.941,27.192-29l184.9,49.851Z" transform="translate(-2.257 -48.726)"/>
    <path id="Path_8" data-name="Path 8" class="cls-6" d="M406.365,423.884c-14.5,31.723-44.413,46.226-66.166,31.723-21.753-13.6-28.1-50.757-13.6-82.481S371.016,326.9,392.769,341.4C414.522,355,420.867,392.16,406.365,423.884Z" transform="translate(-47.838 -50.454)"/>
    <path id="Path_9" data-name="Path 9" class="cls-7" d="M359.857,383.987c18.127-1.812,24.472,30.817-1.812,42.6l-65.26-22.66S342.636,385.8,359.857,383.987Z" transform="translate(-43.93 -57.689)"/>
    <path id="Path_10" data-name="Path 10" class="cls-8" d="M370.462,461.358s-48.945,6.345-39.881-43.506c1.812-11.783,9.064-29.911,27.191-36.256L278.918,368,304.3,439.6l29.911,20.847C333.3,460.451,349.616,473.14,370.462,461.358Z" transform="translate(-41.847 -55.298)"/>
    <path id="Path_11" data-name="Path 11" class="cls-9" d="M278.765,359.477c9.97-22.66,28.1-36.256,46.226-37.161C173.625,320.5,34.042,245.273,34.042,245.273s-22.66-5.438-30.817,27.192c-9.97,36.256,9.97,48.945,9.97,48.945,115.111,5.438,241.1,92.451,275.541,117.83C268.794,422.924,265.169,389.388,278.765,359.477Z" transform="translate(0 -36.805)"/>
    <path id="Path_12" data-name="Path 12" class="cls-10" d="M215.4,314.13s-69.791,33.536-34.442,81.575l-38.975-18.127s-16.315-48.945,38.068-72.51Z" transform="translate(-20.925 -45.841)"/>
  </g>
</svg>
